<?xml version="1.0" encoding="utf-8"?>
<svg viewBox="0 0 448 512" xmlns="http://www.w3.org/2000/svg">
  <defs>
    <linearGradient gradientUnits="userSpaceOnUse" x1="224" y1="32" x2="224" y2="480" id="gradient-0">
      <stop offset="0" style="stop-color: rgb(0, 198, 255);"/>
      <stop offset="1" style="stop-color: rgb(0, 114, 255);"/>
    </linearGradient>
  </defs>
  <path d="M 416 32 L 31.9 32 C 14.3 32 0 46.5 0 64.3 L 0 447.7 C 0 465.5 14.3 480 31.9 480 L 416 480 C 433.6 480 448 465.5 448 447.7 L 448 64.3 C 448 46.5 433.6 32 416 32 Z M 135.4 416 L 69 416 L 69 202.2 L 135.5 202.2 L 135.5 416 L 135.4 416 Z M 102.2 173 C 80.9 173 63.7 155.7 63.7 134.5 C 63.7 113.3 80.9 96 102.2 96 C 123.4 96 140.7 113.3 140.7 134.5 C 140.7 155.8 123.5 173 102.2 173 L 102.2 173 Z M 384.3 416 L 317.9 416 L 317.9 312 C 317.9 287.2 317.4 255.3 283.4 255.3 C 248.8 255.3 243.5 282.3 243.5 310.2 L 243.5 416 L 177.1 416 L 177.1 202.2 L 240.8 202.2 L 240.8 231.4 L 241.7 231.4 C 250.6 214.6 272.3 196.9 304.6 196.9 C 371.8 196.9 384.3 241.2 384.3 298.8 L 384.3 416 L 384.3 416 Z" style="paint-order: fill; fill: url(#gradient-0);"/>
</svg>